<svg xmlns="http://www.w3.org/2000/svg" viewBox="0 0 269.96 179"><defs><style>.cls-1{fill:#fff;}</style></defs><title>Asset 10</title><g id="Layer_2" data-name="Layer 2"><g id="Layer_4" data-name="Layer 4">
<path class="cls-1" d="M107,166.8a35.5,35.5,0,0,1-15.5-4,34.59,34.59,0,0,1-9.25-7.25,37,37,0,0,1-3.15-4.08l-.22-.25h0A31.1,31.1,0,0,1,51,151.05a28.5,28.5,0,0,1-10-8.75,26.61,26.61,0,0,1-1.83-3.1l-.06-.12A36.42,36.42,0,0,1,28,136.8c-7.73-2.91-12.32-7.7-15.5-11a42.89,42.89,0,0,1-9-13A42.24,42.24,0,0,1,2.21,82.55a39.88,39.88,0,0,1,8.25-13.5c3.75-4.21,10.19-11.44,20-12.25h.1l0-.13a42.17,42.17,0,0,1,4.6-9.36A32.37,32.37,0,0,1,44,37.8a31.33,31.33,0,0,1,13.75-5.25,31.47,31.47,0,0,1,15.25,1l.55.19,0-.13a21.9,21.9,0,0,1,2.17-5.06c3.64-6.19,9.26-8.68,14.5-11,4-1.77,8.68-3.77,14.75-3,.68.09,1.32.2,1.94.34l.12,0a21.25,21.25,0,0,1,4.18-5.86c3.09-3,6.25-4.24,10.25-5.75a42.35,42.35,0,0,1,18-3.25,37,37,0,0,1,18.38,5.5,41.68,41.68,0,0,1,7.37,6.09s18.08-8.7,34.63-6.09a57.48,57.48,0,0,1,25.44,11,56.24,56.24,0,0,1,17.84,21.5c5.61,10.95,5.59,21.05,5.59,26.5v.58a16,16,0,0,1,4.87,1.17A17.34,17.34,0,0,1,260,70.9c2.94,3.57,4.83,8.26,6.5,12.9,1.79,5,5.06,13.75,2.63,24.75a40.78,40.78,0,0,1-8.19,16.75,44.26,44.26,0,0,1-16.47,13c-4.13,1.86-9.17,4.07-15.73,3.25-.8-.1-1.55-.24-2.27-.4l0,.05a42.56,42.56,0,0,1-4.93,5.85,33.87,33.87,0,0,1-13.75,9,28.37,28.37,0,0,1-16.25.75,26.76,26.76,0,0,1-3.56-1.2l0,.1a35.83,35.83,0,0,1-6.65,10.6,37.78,37.78,0,0,1-17,10.5,39.16,39.16,0,0,1-16.75,2,41.85,41.85,0,0,1-13-3.75c-4.67-2-8.66-3.73-12.25-7.75a23.89,23.89,0,0,1-1.62-2l-.1,0A42,42,0,0,1,107,166.8Z"/>
</g></g></svg>