<svg xmlns="http://www.w3.org/2000/svg" viewBox="0 0 269.89 178.87"><defs><style>.cls-1{fill:none;stroke:#000;stroke-miterlimit:10;stroke-width:5px;}.cls-2{fill:lime;}</style></defs><title>Asset 1</title><g id="Layer_2" data-name="Layer 2"><g id="Layer_2-2" data-name="Layer 2"><path class="cls-1" d="M84.44,134.08"/><path class="cls-2" d="M190.47,125.44a61.9,61.9,0,0,0,42.43-17.57c10.41-10.41,18.24-27.48,17.57-42.43-.7-15.52-5.79-31.61-17.57-42.43S206.73,5.44,190.47,5.44A61.9,61.9,0,0,0,148,23c-10.41,10.41-18.24,27.48-17.57,42.43C131.17,81,136.26,97,148,107.86s26.17,17.57,42.43,17.57Z"/><path class="cls-2" d="M63.79,104.23c18.83,0,36.87-16.56,36-36s-15.82-36-36-36c-18.83,0-36.87,16.56-36,36s15.82,36,36,36Z"/><path class="cls-2" d="M104.53,86.37c18.83,0,36.87-16.56,36-36s-15.82-36-36-36c-18.83,0-36.87,16.56-36,36s15.82,36,36,36Z"/><path class="cls-2" d="M197.73,157.24c18.83,0,36.87-16.56,36-36s-15.82-36-36-36c-18.83,0-36.87,16.56-36,36s15.82,36,36,36Z"/><path class="cls-2" d="M107.88,166.73c18.83,0,36.87-16.56,36-36s-15.82-36-36-36c-18.83,0-36.87,16.56-36,36s15.82,36,36,36Z"/><path class="cls-2" d="M151.41,178.87a43.33,43.33,0,0,0,29.7-12.3c7.28-7.28,12.77-19.24,12.3-29.7-1-22.76-18.45-42-42-42a43.33,43.33,0,0,0-29.7,12.3c-7.28,7.28-12.77,19.24-12.3,29.7,1,22.76,18.45,42,42,42Z"/><path class="cls-2" d="M227.86,141.48a43.33,43.33,0,0,0,29.7-12.3c7.28-7.28,12.77-19.24,12.3-29.7-1-22.76-18.45-42-42-42a43.33,43.33,0,0,0-29.7,12.3c-7.28,7.28-12.77,19.24-12.3,29.7,1,22.76,18.45,42,42,42Z"/><path class="cls-2" d="M42,138.69a43.33,43.33,0,0,0,29.7-12.3C79,119.1,84.5,107.15,84,96.69c-1-22.76-18.45-42-42-42A43.33,43.33,0,0,0,12.33,67C5,74.28-.44,86.23,0,96.69c1,22.76,18.45,42,42,42Z"/><path class="cls-2" d="M64.35,154c15.69,0,30.73-13.8,30-30s-13.18-30-30-30c-15.69,0-30.73,13.8-30,30s13.18,30,30,30Z"/><path class="cls-2" d="M136.9,84a43.33,43.33,0,0,0,29.7-12.3c7.28-7.28,12.77-19.24,12.3-29.7-1-22.76-18.45-42-42-42a43.33,43.33,0,0,0-29.7,12.3C99.91,19.59,94.43,31.54,94.9,42c1,22.76,18.45,42,42,42Z"/><path class="cls-2" d="M143,129.76a43.33,43.33,0,0,0,29.7-12.3c7.28-7.28,12.77-19.24,12.3-29.7-1-22.76-18.45-42-42-42a43.33,43.33,0,0,0-29.7,12.3c-7.28,7.28-12.77,19.24-12.3,29.7,1,22.76,18.45,42,42,42Z"/><path class="cls-2" d="M102.3,129.76a43.33,43.33,0,0,0,29.7-12.3c7.28-7.28,12.77-19.24,12.3-29.7-1-22.76-18.45-42-42-42a43.33,43.33,0,0,0-29.7,12.3c-7.28,7.28-12.77,19.24-12.3,29.7,1,22.76,18.45,42,42,42Z"/></g></g></svg>