<svg xmlns="http://www.w3.org/2000/svg" viewBox="0 0 270.05 376"><defs><style>.cls-1{fill:#fff;}</style></defs><title>Asset 9</title><g id="Layer_2" data-name="Layer 2"><g id="Layer_5" data-name="Layer 5"><path class="cls-1" d="M.06,98.49v.78l.2,190.13-.1.67q-.07,1-.09,2a42.55,42.55,0,0,0,.2,5.25,41.82,41.82,0,0,0,3.25,12.5,42.89,42.89,0,0,0,9,13c3.18,3.3,7.77,8.09,15.5,11a36.42,36.42,0,0,0,11.11,2.28l.06.12A26.61,26.61,0,0,0,41,339.3a28.5,28.5,0,0,0,10,8.75,31.1,31.1,0,0,0,27.87.18h0l.22.25a37,37,0,0,0,3.15,4.08,34.59,34.59,0,0,0,9.25,7.25,35.5,35.5,0,0,0,15.5,4,42,42,0,0,0,13.53-1.5l.1,0a23.89,23.89,0,0,0,1.62,2c3.59,4,7.58,5.74,12.25,7.75a41.85,41.85,0,0,0,13,3.75,39.16,39.16,0,0,0,16.75-2,37.78,37.78,0,0,0,17-10.5,35.83,35.83,0,0,0,6.65-10.6l0-.1a26.76,26.76,0,0,0,3.56,1.2,28.37,28.37,0,0,0,16.25-.75,33.87,33.87,0,0,0,13.75-9,42.57,42.57,0,0,0,4.93-5.85l0-.05c.72.16,1.48.3,2.27.4,6.56.82,11.61-1.39,15.74-3.25a44.3,44.3,0,0,0,16.48-13,40.75,40.75,0,0,0,8.2-16.75,37,37,0,0,0,.72-4.62l.15-1.46V100.34a48,48,0,0,0-3.47-16.54c-1.67-4.64-3.5-9.33-6.44-12.9a16.87,16.87,0,0,0-6.25-4.6,14.28,14.28,0,0,0-4.62-1.17v-.58a56.16,56.16,0,0,0-5.84-26.5,58,58,0,0,0-18.09-21.5,57.48,57.48,0,0,0-25.44-11c-16.54-2.6-34.62,6.09-34.62,6.09a41.68,41.68,0,0,0-7.37-6.09A37,37,0,0,0,139.52.05a42.35,42.35,0,0,0-18,3.25c-4,1.51-7.16,2.71-10.25,5.75a21.25,21.25,0,0,0-4.18,5.86l-.12,0c-.62-.14-1.27-.25-1.94-.34-6.07-.77-10.75,1.23-14.75,3-5.24,2.32-10.86,4.81-14.5,11a21.9,21.9,0,0,0-2.17,5.06l0,.13L73,33.55a31.47,31.47,0,0,0-15.25-1A31.33,31.33,0,0,0,44,37.8a32.37,32.37,0,0,0-8.75,9.5,42.17,42.17,0,0,0-4.6,9.36l0,.13h-.1c-9.81.81-16.25,8-20,12.25a39.88,39.88,0,0,0-8.25,13.5A40.79,40.79,0,0,0,.05,98.16Z"/></g></g></svg>