<svg xmlns="http://www.w3.org/2000/svg" viewBox="0 0 269.96 100.86"><defs><style>.cls-1{fill:#fff;}</style></defs><title>Asset 12</title><g id="Layer_2" data-name="Layer 2"><g id="Layer_6" data-name="Layer 6"><path class="cls-1" d="M.21,100.86A42,42,0,0,1,2.21,83a40.14,40.14,0,0,1,8.25-13.58c3.75-4.23,10.19-11.5,20-12.32h.1l0-.13a42.5,42.5,0,0,1,4.6-9.42A32.49,32.49,0,0,1,44,38a31.22,31.22,0,0,1,13.75-5.28,31.3,31.3,0,0,1,15.25,1l.55.19,0-.14a22.09,22.09,0,0,1,2.17-5.08C79.36,22.48,85,20,90.21,17.65c4-1.78,8.68-3.79,14.75-3,.68.09,1.32.2,1.94.34l.12,0a21.36,21.36,0,0,1,4.18-5.9c3.09-3.06,6.25-4.26,10.25-5.78a42.14,42.14,0,0,1,18-3.27,36.8,36.8,0,0,1,18.38,5.53,41.74,41.74,0,0,1,7.37,6.13S183.3,3,199.84,5.58a57.33,57.33,0,0,1,25.44,11.06,56.51,56.51,0,0,1,17.84,21.62c5.61,11,5.59,21.17,5.59,26.65v.59a15.89,15.89,0,0,1,4.87,1.17A17.34,17.34,0,0,1,260,71.3c2.94,3.59,4.83,8.3,6.5,13A48.7,48.7,0,0,1,270,100.86"/></g></g></svg>