<svg xmlns="http://www.w3.org/2000/svg" viewBox="0 0 269.74 78.7"><defs><style>.cls-1{fill:#fff;}</style></defs><title>Asset 14</title><g id="Layer_2" data-name="Layer 2"><g id="Layer_6" data-name="Layer 6"><path class="cls-1" d="M269.74,0a36.56,36.56,0,0,1-.87,8.25A40.78,40.78,0,0,1,260.69,25a44.26,44.26,0,0,1-16.47,13c-4.13,1.86-9.17,4.07-15.73,3.25-.8-.1-1.55-.24-2.27-.4l0,.05a42.56,42.56,0,0,1-4.93,5.85,33.87,33.87,0,0,1-13.75,9,28.37,28.37,0,0,1-16.25.75,26.76,26.76,0,0,1-3.56-1.2l0,.1A35.83,35.83,0,0,1,181,66a37.78,37.78,0,0,1-17,10.5,39.16,39.16,0,0,1-16.75,2,41.85,41.85,0,0,1-13-3.75c-4.67-2-8.66-3.73-12.25-7.75a23.89,23.89,0,0,1-1.62-2l-.1,0a42,42,0,0,1-13.53,1.5,35.5,35.5,0,0,1-15.5-4A34.59,34.59,0,0,1,82,55.25a37,37,0,0,1-3.15-4.08l-.22-.25h0a31.1,31.1,0,0,1-27.87-.18,28.5,28.5,0,0,1-10-8.75,26.61,26.61,0,0,1-1.83-3.1l-.06-.12A36.42,36.42,0,0,1,27.75,36.5c-7.73-2.91-12.32-7.7-15.5-11a42.89,42.89,0,0,1-9-13A41.82,41.82,0,0,1,0,0"/></g></g></svg>