<svg xmlns="http://www.w3.org/2000/svg" viewBox="0 0 270.04 395.87"><defs><style>.cls-1,.cls-3,.cls-4{fill:none;stroke:#fff;stroke-miterlimit:10;}.cls-1{stroke-width:5px;}.cls-2{fill:#fff;}.cls-3{stroke-width:33px;}.cls-4{stroke-width:39px;}</style></defs><title>Asset 3</title><g id="Layer_2" data-name="Layer 2"><g id="Layer_3" data-name="Layer 3"><path class="cls-1" d="M84.44,134.08"/><path class="cls-2" d="M190.47,125.44a61.9,61.9,0,0,0,42.43-17.57c10.41-10.41,18.24-27.48,17.57-42.43-.7-15.52-5.79-31.61-17.57-42.43S206.73,5.44,190.47,5.44A61.9,61.9,0,0,0,148,23c-10.41,10.41-18.24,27.48-17.57,42.43C131.17,81,136.26,97,148,107.86s26.17,17.57,42.43,17.57Z"/><path class="cls-2" d="M63.79,104.23c18.83,0,36.87-16.56,36-36s-15.82-36-36-36c-18.83,0-36.87,16.56-36,36s15.82,36,36,36Z"/><path class="cls-2" d="M104.53,86.37c18.83,0,36.87-16.56,36-36s-15.82-36-36-36c-18.83,0-36.87,16.56-36,36s15.82,36,36,36Z"/><path class="cls-2" d="M197.73,157.24c18.83,0,36.87-16.56,36-36s-15.82-36-36-36c-18.83,0-36.87,16.56-36,36s15.82,36,36,36Z"/><path class="cls-2" d="M107.88,166.73c18.83,0,36.87-16.56,36-36s-15.82-36-36-36c-18.83,0-36.87,16.56-36,36s15.82,36,36,36Z"/><path class="cls-2" d="M151.41,178.87a43.33,43.33,0,0,0,29.7-12.3c7.28-7.28,12.77-19.24,12.3-29.7-1-22.76-18.45-42-42-42a43.33,43.33,0,0,0-29.7,12.3c-7.28,7.28-12.77,19.24-12.3,29.7,1,22.76,18.45,42,42,42Z"/><path class="cls-2" d="M227.86,141.48a43.33,43.33,0,0,0,29.7-12.3c7.28-7.28,12.77-19.24,12.3-29.7-1-22.76-18.45-42-42-42a43.33,43.33,0,0,0-29.7,12.3c-7.28,7.28-12.77,19.24-12.3,29.7,1,22.76,18.45,42,42,42Z"/><path class="cls-2" d="M42,138.69a43.33,43.33,0,0,0,29.7-12.3C79,119.1,84.5,107.15,84,96.69c-1-22.76-18.45-42-42-42A43.33,43.33,0,0,0,12.33,67C5,74.28-.44,86.23,0,96.69c1,22.76,18.45,42,42,42Z"/><path class="cls-2" d="M64.35,154c15.69,0,30.73-13.8,30-30s-13.18-30-30-30c-15.69,0-30.73,13.8-30,30s13.18,30,30,30Z"/><path class="cls-2" d="M136.9,84a43.33,43.33,0,0,0,29.7-12.3c7.28-7.28,12.77-19.24,12.3-29.7-1-22.76-18.45-42-42-42a43.33,43.33,0,0,0-29.7,12.3C99.91,19.59,94.43,31.54,94.9,42c1,22.76,18.45,42,42,42Z"/><path class="cls-2" d="M143,129.76a43.33,43.33,0,0,0,29.7-12.3c7.28-7.28,12.77-19.24,12.3-29.7-1-22.76-18.45-42-42-42a43.33,43.33,0,0,0-29.7,12.3c-7.28,7.28-12.77,19.24-12.3,29.7,1,22.76,18.45,42,42,42Z"/><path class="cls-2" d="M102.3,129.76a43.33,43.33,0,0,0,29.7-12.3c7.28-7.28,12.77-19.24,12.3-29.7-1-22.76-18.45-42-42-42a43.33,43.33,0,0,0-29.7,12.3c-7.28,7.28-12.77,19.24-12.3,29.7,1,22.76,18.45,42,42,42Z"/><path class="cls-1" d="M84.44,351.08"/><path class="cls-2" d="M190.47,342.44a61.9,61.9,0,0,0,42.43-17.57c10.41-10.41,18.24-27.48,17.57-42.43-.7-15.52-5.79-31.61-17.57-42.43s-26.17-17.57-42.43-17.57A61.9,61.9,0,0,0,148,240c-10.41,10.41-18.24,27.48-17.57,42.43.7,15.52,5.79,31.61,17.57,42.43s26.17,17.57,42.43,17.57Z"/><path class="cls-2" d="M63.79,321.23c18.83,0,36.87-16.56,36-36s-15.82-36-36-36c-18.83,0-36.87,16.56-36,36s15.82,36,36,36Z"/><path class="cls-2" d="M104.53,303.37c18.83,0,36.87-16.56,36-36s-15.82-36-36-36c-18.83,0-36.87,16.56-36,36s15.82,36,36,36Z"/><path class="cls-2" d="M197.73,374.24c18.83,0,36.87-16.56,36-36s-15.82-36-36-36c-18.83,0-36.87,16.56-36,36s15.82,36,36,36Z"/><path class="cls-2" d="M107.88,383.73c18.83,0,36.87-16.56,36-36s-15.82-36-36-36c-18.83,0-36.87,16.56-36,36s15.82,36,36,36Z"/><path class="cls-2" d="M151.41,395.87a43.33,43.33,0,0,0,29.7-12.3c7.28-7.28,12.77-19.24,12.3-29.7-1-22.76-18.45-42-42-42a43.33,43.33,0,0,0-29.7,12.3c-7.28,7.28-12.77,19.24-12.3,29.7,1,22.76,18.45,42,42,42Z"/><path class="cls-2" d="M227.86,358.48a43.33,43.33,0,0,0,29.7-12.3c7.28-7.28,12.77-19.24,12.3-29.7-1-22.76-18.45-42-42-42a43.33,43.33,0,0,0-29.7,12.3c-7.28,7.28-12.77,19.24-12.3,29.7,1,22.76,18.45,42,42,42Z"/><path class="cls-2" d="M42,355.69a43.33,43.33,0,0,0,29.7-12.3C79,336.1,84.5,324.15,84,313.69c-1-22.76-18.45-42-42-42A43.33,43.33,0,0,0,12.33,284C5,291.28-.44,303.23,0,313.69c1,22.76,18.45,42,42,42Z"/><path class="cls-2" d="M64.35,371c15.69,0,30.73-13.8,30-30s-13.18-30-30-30c-15.69,0-30.73,13.8-30,30s13.18,30,30,30Z"/><path class="cls-2" d="M136.9,301a43.33,43.33,0,0,0,29.7-12.3c7.28-7.28,12.77-19.24,12.3-29.7-1-22.76-18.45-42-42-42a43.33,43.33,0,0,0-29.7,12.3c-7.28,7.28-12.77,19.24-12.3,29.7,1,22.76,18.45,42,42,42Z"/><path class="cls-2" d="M143,346.76a43.33,43.33,0,0,0,29.7-12.3c7.28-7.28,12.77-19.24,12.3-29.7-1-22.76-18.45-42-42-42a43.33,43.33,0,0,0-29.7,12.3c-7.28,7.28-12.77,19.24-12.3,29.7,1,22.76,18.45,42,42,42Z"/><path class="cls-2" d="M102.3,346.76a43.33,43.33,0,0,0,29.7-12.3c7.28-7.28,12.77-19.24,12.3-29.7-1-22.76-18.45-42-42-42a43.33,43.33,0,0,0-29.7,12.3c-7.28,7.28-12.77,19.24-12.3,29.7,1,22.76,18.45,42,42,42Z"/><path class="cls-2" d="M137.77,137.49l1.51,122.66c.1,7.72,12.1,7.74,12,0l-1.51-122.66c-.1-7.72-12.1-7.74-12,0Z"/><path class="cls-2" d="M96.21,95.09c3,22.21,10.54,43.51,15.88,65.21a650.19,650.19,0,0,1,12.77,67.23L123.57,218q4,29.64,5.23,59.54c.4,9.47,3.74,18.65,10.54,25.46,6.24,6.24,16.49,10.95,25.46,10.54,18.82-.84,36.86-15.85,36-36A712.49,712.49,0,0,0,188.15,171.3q-4.71-24.11-11.26-47.81c-4.34-15.71-9.06-31.33-11.26-47.53-1.12-8.26-9.74-17.53-16.54-21.51C141.37,49.92,130,48,121.35,50.81S104.23,59,99.83,67.35L96.21,76a36.25,36.25,0,0,0,0,19.14Z"/><path class="cls-2" d="M158.58,118.82v164c0,18.83,16.56,36.87,36,36s36-15.82,36-36v-164c0-18.83-16.56-36.87-36-36s-36,15.82-36,36Z"/><path class="cls-2" d="M81.91,125.49v166c0,18.83,16.56,36.87,36,36s36-15.82,36-36v-166c0-18.83-16.56-36.87-36-36s-36,15.82-36,36Z"/><path class="cls-2" d="M35.21,130.82q-2.88,68.63-2.62,137.33c.07,18.83,16.51,36.87,36,36s36.08-15.82,36-36q-.26-68.69,2.62-137.33c.79-18.84-17.12-36.85-36-36-20.18.9-35.15,15.82-36,36Z"/><path class="cls-2" d="M26.58,134.82v95.33c0,18.83,16.56,36.87,36,36s36-15.82,36-36V134.82c0-18.83-16.56-36.87-36-36s-36,15.82-36,36Z"/><path class="cls-2" d="M36.58,152.82V272.16c0,18.83,16.56,36.87,36,36s36-15.82,36-36V152.82c0-18.83-16.56-36.87-36-36s-36,15.82-36,36Z"/><line class="cls-3" x1="16.58" y1="100.49" x2="16.58" y2="307.82"/><path class="cls-2" d="M25.21,249.15a168.42,168.42,0,0,0,3.42,37.56c1.54,7.56,13.11,4.36,11.57-3.19a153.73,153.73,0,0,1-3-34.37c.18-7.72-11.82-7.72-12,0Z"/><line class="cls-4" x1="250.54" y1="100.38" x2="249.87" y2="314.59"/><path class="cls-2" d="M236.54,163.84c10.87,51.91,2.15,105.24,6.27,157.7.6,7.65,12.61,7.71,12,0-4.21-53.6,4.41-107.82-6.7-160.89-1.58-7.55-13.15-4.36-11.57,3.19Z"/><path class="cls-2" d="M227.71,194.16l-.56,102.67c0,7.72,12,7.73,12,0l.56-102.67c0-7.72-12-7.73-12,0Z"/><path class="cls-2" d="M222.15,144.17a624.46,624.46,0,0,1,3.49,67.32c0,7.72,12,7.73,12,0a624.46,624.46,0,0,0-3.49-67.32c-.81-7.6-12.82-7.68-12,0Z"/></g></g></svg>